<svg id="Capa_1" data-name="Capa 1" xmlns="http://www.w3.org/2000/svg" viewBox="0 0 512 512">
  <title>animate</title>
  <path d="M512,512H0V0H512Z" fill="#ff6849"/>
  <path d="M512,512H256V0H512Z" fill="#fd4b2d"/>
  <path d="M482,482H30V30H482Z" fill="#a10101"/>
  <path d="M482,482H256V30H482Z" fill="#7f0101"/>
  <path d="M170.62,181.6H199.9L264.7,352H230.62l-15.84-42.48H155.26L139.66,352H105.58Zm38.16,104.64-23.52-67-24.48,67Z" fill="#ff6849"/>
  <g>
    <path d="M397.18,352H365V281.44c0-20.11-7.85-29-19.92-29-21.77,0-31.52,22.32-32.64,26.16V352H280.3V226.24h29v23.28c4.64-8,18.49-25.44,49.92-25.44,30.57,0,37.92,24.25,37.92,49.44V352Z" fill="#fd4b2d"/>
    <polygon points="256 329.12 256 352 264.7 352 256 329.12" fill="#fd4b2d"/>
  </g>
</svg>
