<svg id="Layer_1" data-name="Layer 1" xmlns="http://www.w3.org/2000/svg" viewBox="0 0 138.92 39.58">
  <title>mongodb</title>
  <g>
    <path d="M129.49,16.37c-.12,0-.25.3-.25.45,0,1-.05,3.66-.05,5.46,0,0,.08.16.15.16.38,0,1.28,0,2.06,0a5.26,5.26,0,0,0,2-.31,2.64,2.64,0,0,0,1.33-2.5c0-2.43-1.7-3.36-4.23-3.36a3.68,3.68,0,0,0-1.06.05ZM136,27.57c0-2.48-1.83-3.86-5.14-3.86-.15,0-1.2,0-1.45,0-.08,0-.18.07-.18.15,0,1.78,0,4.61.05,5.71a1.89,1.89,0,0,0,.83,1.36,5.75,5.75,0,0,0,2.18.3A3.42,3.42,0,0,0,136,27.57ZM124.38,15c.25,0,1,.08,2.93.08s3.29-.05,5.07-.05c2.18,0,5.18.77,5.18,4a3.92,3.92,0,0,1-2.6,3.51c-.08,0-.08.08,0,.1,2.1.53,4,1.83,4,4.29s-1.51,3.93-3.69,4.89a12.1,12.1,0,0,1-4.66.77c-1.28,0-4.71-.15-6.62-.1-.2-.07.18-1,.35-1.13a4.43,4.43,0,0,0,1.28-.2c.68-.17.75-.37.85-1.4s.06-4,.06-6.19c0-3,0-5.09,0-6.09,0-.78-.31-1-.86-1.18s-1.13-.18-1.7-.25c-.13-.13.3-1,.45-1.08ZM109.92,30.58a5,5,0,0,0,2.83.68,5.55,5.55,0,0,0,4-1.43c1.33-1.2,2.26-3.06,2.26-6a7.17,7.17,0,0,0-3.29-6.49,8.84,8.84,0,0,0-4.71-1.1,3.74,3.74,0,0,0-1.4.17.74.74,0,0,0-.26.4c0,.51,0,4.37,0,6.62s0,5.59,0,6a1.55,1.55,0,0,0,.56,1.2ZM104.23,15c.47,0,2.3.08,3.18.08,1.58,0,2.71-.08,5.69-.08a9.28,9.28,0,0,1,6.12,2A8.11,8.11,0,0,1,122,23.36a8.39,8.39,0,0,1-3.46,7.22,11.6,11.6,0,0,1-7.2,2c-1.7,0-4.63,0-7.06-.07h0c-.12-.23.2-1.11.4-1.13a3.89,3.89,0,0,0,1.15-.23c.53-.2.63-.47.71-1.4.07-1.73,0-3.81,0-6.17,0-1.68,0-5,0-6-.07-.88-.45-1.11-1.2-1.26-.38-.07-.88-.17-1.58-.25-.1-.17.35-.95.48-1.1Z" fill="#8e714e"/>
    <path d="M73.89,31.56a5.31,5.31,0,0,1-1.63-.43.8.8,0,0,1-.2-.4c0-.88,0-3.38,0-5.06a5.9,5.9,0,0,0-.8-3.36,3.41,3.41,0,0,0-2.91-1.5,6.73,6.73,0,0,0-3.81,1.8s-.22.2-.2-.07,0-.83.08-1.21a.65.65,0,0,0-.18-.52,16.92,16.92,0,0,1-3.88,1c-.6.12-.75.7-.13.9h0a5.85,5.85,0,0,1,1.48.65.78.78,0,0,1,.22.7c0,1.88,0,4.77,0,6.35,0,.62-.2.85-.65.95l0,0a8.94,8.94,0,0,1-1,.2,1.47,1.47,0,0,0,0,1.13c.27,0,1.73-.07,2.93-.07,1.65,0,2.51.07,2.93.07a1.61,1.61,0,0,0,.13-1.13,4.37,4.37,0,0,1-1.15-.17c-.46-.1-.58-.33-.61-.85,0-1.33,0-4.14,0-6a1.21,1.21,0,0,1,.3-.93A3.82,3.82,0,0,1,67,22.69a2.65,2.65,0,0,1,1.73.57,2.51,2.51,0,0,1,.8,1.58c.12,1.08.07,3.21.07,5.07,0,1-.07,1.25-.45,1.37a4.48,4.48,0,0,1-1.15.23,1.43,1.43,0,0,0,0,1.13c.73,0,1.58-.08,2.83-.08,1.56,0,2.56.08,3,.08a1.79,1.79,0,0,0,.07-1.08Zm7-9.58c-1.33,0-2.16,1-2.16,2.64s.73,3.51,2.78,3.51a2,2,0,0,0,1.31-.51,3.34,3.34,0,0,0,.8-2.3c0-2.08-1-3.34-2.73-3.34Zm-.18,11.08a2.13,2.13,0,0,0-1.08.28c-1,.68-1.52,1.33-1.52,2.11a2.21,2.21,0,0,0,.87,1.8,4.45,4.45,0,0,0,3,.93c2.56,0,3.69-1.38,3.69-2.73a1.93,1.93,0,0,0-1.46-1.94,10.15,10.15,0,0,0-3.51-.45Zm.18,6.52a5.56,5.56,0,0,1-3.59-1,3.34,3.34,0,0,1-1.33-2.48,2,2,0,0,1,.51-1.26,13.09,13.09,0,0,1,2.3-1.85s.08,0,.08-.1,0-.1-.1-.13a2.38,2.38,0,0,1-1.63-1.58v-.05c0-.15-.08-.3.15-.45s.42-.27.7-.45a10,10,0,0,0,1.15-.75.18.18,0,0,0,0-.15c0-.05,0-.1-.1-.13a3.65,3.65,0,0,1-2.63-3.83A3.81,3.81,0,0,1,78,22.16a7.35,7.35,0,0,1,3.61-1.23h.07a8,8,0,0,1,2.76.6,4.54,4.54,0,0,0,1.63.25,2.17,2.17,0,0,0,1.75-.65,1.19,1.19,0,0,1,.1.5,1.87,1.87,0,0,1-.32,1.16,1.46,1.46,0,0,1-1.11.47h-.12a5.57,5.57,0,0,1-.65-.1l-.1.05c0,.05,0,.1,0,.18l0,.05a9,9,0,0,1,.15,1.08,4.06,4.06,0,0,1-1.71,3.63,5.73,5.73,0,0,1-2.93,1.13l-.35,0c-.13,0-.3,0-.33,0h0c-.2.05-.7.3-.7.73s.22.82,1.3.9c.22,0,.45,0,.7.05a21.7,21.7,0,0,1,4,.5,2.81,2.81,0,0,1,1.88,2.68c0,1.86-1.33,3.59-3.54,4.66a8,8,0,0,1-3.33.73ZM95.13,22.11a2.27,2.27,0,0,0-1.36.38c-1,.6-1.48,1.8-1.48,3.55,0,3.29,1.66,5.59,4,5.59A2.53,2.53,0,0,0,98,31c.73-.6,1.11-1.8,1.11-3.48,0-3.26-1.63-5.44-4-5.44Zm.45,10.73c-4.26,0-5.79-3.14-5.79-6.07A5.42,5.42,0,0,1,92.27,22a7.51,7.51,0,0,1,3.83-1.13,5.37,5.37,0,0,1,5.54,5.69A5.82,5.82,0,0,1,99,31.76a7,7,0,0,1-3.43,1.08ZM50.91,22.11a2.29,2.29,0,0,0-1.36.38c-1,.6-1.47,1.8-1.47,3.55,0,3.29,1.65,5.59,4,5.59a2.57,2.57,0,0,0,1.73-.6c.72-.6,1.1-1.8,1.1-3.48,0-3.26-1.61-5.44-4-5.44Zm.45,10.73c-4.26,0-5.79-3.14-5.79-6.07A5.44,5.44,0,0,1,48.05,22a7.52,7.52,0,0,1,3.84-1.13,5.37,5.37,0,0,1,5.54,5.69,5.83,5.83,0,0,1-2.64,5.19,6.79,6.79,0,0,1-3.43,1.08Zm-28.65-.25a1.13,1.13,0,0,1-.08-.58.79.79,0,0,1,.08-.38,9.53,9.53,0,0,0,1.1-.22c.5-.13.7-.4.73-1,.07-1.5.07-4.36.05-6.34V24a.75.75,0,0,0-.28-.7,5.53,5.53,0,0,0-1.5-.65c-.23-.08-.38-.2-.35-.36s.15-.32.47-.37a18.37,18.37,0,0,0,3.84-1,.62.62,0,0,1,.12.4l0,.28a8.7,8.7,0,0,0-.05.93.19.19,0,0,0,.2.17.3.3,0,0,0,.15-.05A7.07,7.07,0,0,1,31,21a3.24,3.24,0,0,1,2.91,1.78.2.2,0,0,0,.17.1.18.18,0,0,0,.15-.08A7.59,7.59,0,0,1,38.15,21c2.33,0,3.71,1.73,3.71,4.66,0,.83,0,1.9,0,2.88s0,1.68,0,2.26a.79.79,0,0,0,.45.6,5.58,5.58,0,0,0,1.45.35h0a2,2,0,0,1-.15.95c-.15,0-.38,0-.63,0-.63,0-1.27,0-1.9,0-1.56,0-2.36,0-3.14.07a2.53,2.53,0,0,1,0-.95,8.08,8.08,0,0,0,1-.23c.5-.15.62-.37.65-1,0-.48.1-4.54-.05-5.52a2.48,2.48,0,0,0-2.56-2.18,4.45,4.45,0,0,0-2.56,1,.43.43,0,0,0-.1.25v0a11.67,11.67,0,0,1,.1,2.06V27.7c0,1.13,0,2.18,0,3a.74.74,0,0,0,.61.78l.37.07.8.18a1.39,1.39,0,0,1,0,.7.55.55,0,0,1-.1.25c-.85,0-1.73,0-3,0-.38,0-1,0-1.58,0l-1.13,0a1.47,1.47,0,0,1-.07-.5.79.79,0,0,1,.1-.45,1.34,1.34,0,0,1,.35-.05l.8-.15c.43-.13.58-.35.6-.9a43.66,43.66,0,0,0,0-5.74,2.36,2.36,0,0,0-2.46-2.18,4.62,4.62,0,0,0-2.56,1,.83.83,0,0,0-.22.58v1.48c0,1.8,0,4.06,0,5a.78.78,0,0,0,.71.77,3.37,3.37,0,0,0,.57.1l.45.08a2.1,2.1,0,0,1-.07.95l-.9,0c-.53,0-1.21,0-2,0s-1.5,0-2,0a6,6,0,0,0-.92,0Z" fill="#442d22"/>
    <path d="M9.52,38.6l-1-.35S8.62,33,6.74,32.64c-1.25-1.46.2-61.67,4.71-.2a3.66,3.66,0,0,0-1.83,2.1,19.38,19.38,0,0,0-.1,4.06Z" fill="#fff"/>
    <path d="M9.52,38.6l-1-.35S8.62,33,6.74,32.64c-1.25-1.46.2-61.67,4.71-.2a3.66,3.66,0,0,0-1.83,2.1,19.38,19.38,0,0,0-.1,4.06Z" fill="#a6a385"/>
    <path d="M10.07,33.54s9-5.92,6.9-18.22c-2-8.95-6.82-11.89-7.35-13A13.53,13.53,0,0,1,8.49.1L8.87,25s-.78,7.62,1.2,8.55" fill="#fff"/>
    <path d="M10.07,33.54s9-5.92,6.9-18.22c-2-8.95-6.82-11.89-7.35-13A13.53,13.53,0,0,1,8.49.1L8.87,25s-.78,7.62,1.2,8.55" fill="#499d4a"/>
    <path d="M8,33.87S-.48,28.1,0,18s6.44-15.14,7.6-16A2.35,2.35,0,0,0,8.44,0C9,1.13,8.87,16.87,9,18.73,9.17,25.87,8.54,32.51,8,33.87Z" fill="#fff"/>
    <path d="M8,33.87S-.48,28.1,0,18s6.44-15.14,7.6-16A2.35,2.35,0,0,0,8.44,0C9,1.13,8.87,16.87,9,18.73,9.17,25.87,8.54,32.51,8,33.87Z" fill="#58aa50"/>
  </g>
</svg>
