<svg id="Layer_1" data-name="Layer 1" xmlns="http://www.w3.org/2000/svg" viewBox="0 0 2258.81 2489.17">
  <title>node</title>
  <g>
    <path d="M1032.84,31.74c61.72-35.33,142.11-35.49,203.77,0q465.36,263,930.77,525.73c58.34,32.87,97.36,97.8,96.77,165V1777.17c.43,70-42.45,136.49-104,168.61Q1696.32,2207.29,1232.7,2469c-63,36-145,33.24-206-5.73q-139.07-80.61-278.28-160.9c-18.95-11.3-40.31-20.29-53.68-38.66,11.82-15.94,33-17.92,50.15-24.88,38.69-12.31,74.23-32.06,109.78-51.22,9-6.16,20-3.8,28.59,1.71,79.27,45.45,157.84,92.22,237.38,137.24,17,9.8,34.15-3.21,48.65-11.29q455.16-257.25,910.64-513.9c11.24-5.41,17.46-17.35,16.54-29.66q.33-521.88.11-1043.81c1.29-14-6.8-26.82-19.43-32.54Q1614.91,435.07,1152.9,174.44a32.11,32.11,0,0,0-36.3-.05Q654.47,434.84,192.48,695.51c-12.59,5.73-21,18.36-19.54,32.39q.09,521.88,0,1043.86a29.54,29.54,0,0,0,16.76,29.29Q313,1871,436.51,1940.43c46.34,24.94,103.25,39.77,154.31,20.65,45.07-16.16,76.65-62.14,75.79-110,.43-345.89-.21-691.83.32-1037.66-1.12-15.35,13.44-28,28.37-26.59,39.51-.27,79.06-.54,118.57.1,16.48-.37,27.83,16.16,25.79,31.63-.16,348.08.43,696.16-.26,1044.24.1,92.77-38,193.71-123.81,239.1-105.71,54.76-236.37,43.14-340.8-9.37-90.41-45.12-176.69-98.37-265.49-146.72C47.59,1913.88,4.92,1847.14,5.35,1777.18V722.49c-.64-68.62,39.93-134.72,100.09-167.11Q569.19,293.66,1032.84,31.74Z" transform="translate(-5.35 -5.18)" fill="#8cc84b"/>
    <path d="M1302.55,762.32c134.84-8.68,279.2-5.14,400.54,61.29,93.94,50.9,146,157.74,147.68,262.11-2.62,14.08-17.34,21.84-30.78,20.88-39.12-.06-78.25.53-117.37-.27-16.6.64-26.25-14.66-28.33-29.34-11.24-49.93-38.47-99.39-85.48-123.48C1516.66,917.38,1433,919.2,1354.32,920c-57.44,3-119.2,8-167.87,41.8-37.35,25.58-48.7,77.23-35.37,118.83,12.57,29.86,47.05,39.5,75.26,48.38,162.5,42.5,334.7,38.27,494.09,94.2,66,22.81,130.55,67.13,153.14,136.23,29.55,92.6,16.6,203.3-49.29,277.64-53.43,61.18-131.25,94.48-208.86,112.56-103.26,23-210.41,23.61-315.27,13.39-98.6-11.24-201.21-37.15-277.32-104.33-65.09-56.51-96.88-144.57-93.73-229.56.76-14.36,15-24.37,28.8-23.19,39.4-.32,78.79-.42,118.19.06,15.74-1.13,27.4,12.47,28.21,27.3,7.27,47.58,25.15,97.52,66.64,125.73,80.07,51.66,180.54,48.12,272.22,49.56,76-3.36,161.23-4.38,223.21-54.59,32.71-28.63,42.4-76.54,33.56-117.76-9.58-34.79-46-51-77.24-61.61-160.41-50.74-334.53-32.33-493.4-89.72-64.49-22.79-126.86-65.88-151.64-132.14C943.08,1059,958.92,943,1031.71,871.13c71-71.45,173.43-99,270.84-108.82Z" transform="translate(-5.35 -5.18)" fill="#8cc84b"/>
  </g>
</svg>
