<svg id="Layer_1" data-name="Layer 1" xmlns="http://www.w3.org/2000/svg" viewBox="0 0 2500 1301.37">
  <title>php</title>
  <g>
    <ellipse cx="1250" cy="650.68" rx="1250" ry="650.68" fill="#8993be"/>
    <path d="M351,1036l137-693.5H804.79c137,8.57,205.47,77.05,205.47,196.92,0,205.48-162.66,325.35-308.22,316.78H548L513.7,1036Z" fill="#232531"/>
    <path d="M582.19,727.74,625,470.89H736.3c59.93,0,102.73,25.68,102.73,77.05-8.55,145.56-77,171.24-154.1,179.8H582.19Z" fill="#232531"/>
    <path d="M582.19,727.74,625,470.89H736.3c59.93,0,102.73,25.68,102.73,77.05-8.55,145.56-77,171.24-154.1,179.8H582.19Z" fill="#8993be"/>
    <path d="M978.44,856.16l137-693.48H1278.1l-34.25,179.78H1398c137,8.57,188.36,77.05,171.24,162.68l-59.93,351H1338L1398,539.38c8.55-42.81,8.55-68.49-51.37-68.49H1218.16l-77.05,385.27Z" fill="#232531"/>
    <path d="M1498.29,1036l137-693.5h316.78c137,8.57,205.49,77.05,205.49,196.92,0,205.48-162.68,325.35-308.22,316.78H1695.21L1661,1036Z" fill="#232531"/>
    <path d="M1729.44,727.74l42.82-256.85h111.3c59.94,0,102.74,25.68,102.74,77.05-8.56,145.56-77,171.24-154.1,179.8H1729.44Z" fill="#8993be"/>
  </g>
</svg>
