<svg id="Capa_1" data-name="Capa 1" xmlns="http://www.w3.org/2000/svg" viewBox="0 0 512 512">
  <title>psd</title>
  <path d="M512,512H0V0H512Z" fill="#ccefff"/>
  <path d="M512,512H256V0H512Z" fill="#ace3fc"/>
  <path d="M482,482H30V30H482Z" fill="#0c61c6"/>
  <path d="M482,482H256V30H482Z" fill="#0a4eaf"/>
  <path d="M140.86,352V181.6H213.1c33.07,0,54.24,30.4,54.24,56.64,0,30.93-23.51,56.64-53,56.64H174V352ZM174,265.84h38.4c11.62,0,21.36-10.84,21.36-27.6,0-14.4-8.74-27.6-22.8-27.6H174Z" fill="#ccefff"/>
  <g>
    <path d="M334.78,354.4c-29,0-49.68-13.2-56.88-19.44l12-20.16c7.68,5.44,25.35,16.56,44.16,16.56,12.19,0,20.64-5.11,20.64-13.92,0-10.82-17.84-14.32-27.6-17-8.16-2.24-44.88-7.4-44.88-35,0-26.61,23.15-41.52,49.44-41.52,27.59,0,42.32,11.2,49.2,17.28l-13,19.44c-6.4-4.8-20.65-13.92-36.48-13.92-11.67,0-19.2,5-19.2,14.16,0,11.45,20.08,14.72,24.72,15.84,8.64,2.24,48.72,8.36,48.72,37.92C385.66,349.5,350.46,354.4,334.78,354.4Z" fill="#ace3fc"/>
    <path d="M256,204.36v68.81a58.92,58.92,0,0,0,11.34-34.93C267.34,226.78,263.3,214.53,256,204.36Z" fill="#ace3fc"/>
  </g>
</svg>
