<svg id="Layer_1" data-name="Layer 1" xmlns="http://www.w3.org/2000/svg" xmlns:xlink="http://www.w3.org/1999/xlink" viewBox="0 0 2493.73 2480.76">
  <defs>
    <linearGradient id="linear-gradient" x1="737.73" y1="1629.34" x2="738.39" y2="1628.68" gradientTransform="matrix(1849.27, 0, 0, -1853.39, -1364019.94, 3020036.74)" gradientUnits="userSpaceOnUse">
      <stop offset="0" stop-color="#387eb8"/>
      <stop offset="1" stop-color="#366994"/>
    </linearGradient>
    <linearGradient id="linear-gradient-2" x1="737.79" y1="1629.26" x2="738.51" y2="1628.58" gradientTransform="matrix(1849.27, 0, 0, -1853.39, -1363375.26, 3020664.35)" gradientUnits="userSpaceOnUse">
      <stop offset="0" stop-color="#ffe052"/>
      <stop offset="1" stop-color="#ffc331"/>
    </linearGradient>
  </defs>
  <title>python</title>
  <path d="M1239.3.7C606.23.7,645.76,275.24,645.76,275.24l.7,284.42h604.13v85.4H406.51S1.42,599.11,1.42,1237.87,355,1854,355,1854H566V1557.58S554.64,1204,914,1204h599.18s336.64,5.44,336.64-325.35V331.71S1900.9.7,1239.3.7ZM906.18,192a108.6,108.6,0,0,1,108.69,108.49v.2A108.6,108.6,0,0,1,906.38,409.34h-.2A108.6,108.6,0,0,1,797.5,300.85v-.19A108.6,108.6,0,0,1,906,192Z" transform="translate(-1.42 -0.7)" fill="url(#linear-gradient)"/>
  <path d="M1257.27,2481.47c633.07,0,593.54-274.54,593.54-274.54l-.7-284.42H1246v-85.39h844.07s405.1,45.94,405.1-592.83-353.58-616.12-353.58-616.12h-211V924.58s11.38,353.58-347.94,353.58H983.43s-336.64-5.44-336.64,325.36v546.95s-51.11,331,610.47,331Zm333.12-191.26a108.57,108.57,0,0,1-108.68-108.48v-.2a108.58,108.58,0,0,1,108.47-108.69h.21a108.59,108.59,0,0,1,108.68,108.49v.19a108.58,108.58,0,0,1-108.49,108.68h-.19Z" transform="translate(-1.42 -0.7)" fill="url(#linear-gradient-2)"/>
</svg>
