<svg id="Layer_1" data-name="Layer 1" xmlns="http://www.w3.org/2000/svg" viewBox="0 0 2484.56 2233.83">
  <title>react</title>
  <path d="M7.36,1120.56c0,187.64,183.23,362.8,472.08,461.53-57.68,290.39-10.33,524.45,147.81,615.65,162.54,93.75,404.7,28.86,634.54-172.06,224,192.8,450.47,268.68,608.47,177.22,162.4-94,211.78-343.94,152.51-643.4,300.86-99.47,469.16-248.83,469.16-438.94,0-183.28-183.56-341.84-468.53-439.94,63.82-311.84,9.75-540.22-154.94-635.18-158.78-91.56-387.84-11.76-615.17,186.08C1016.77,21.53,790-42.58,625.46,52.65c-158.62,91.83-203.89,330.15-146,625.91C200.33,775.87,7.36,938,7.36,1120.56Z" transform="translate(-7.36 -7.66)" fill="#fff"/>
  <path d="M1963.05,778q-35.22-12.07-71-22.38,5.94-24.12,11-48.44c53.76-261,18.61-471.27-101.44-540.49-115.11-66.38-303.36,2.83-493.49,168.29q-28.1,24.51-54.94,50.41-18-17.22-36.56-33.76c-199.26-176.93-399-251.48-518.91-182.06C582.66,236.17,548.6,433.85,597,681.2q7.22,36.75,16.3,73.09c-28.26,8-55.55,16.58-81.66,25.68C298,861.41,148.85,989.06,148.85,1121.46c0,136.75,160.15,273.91,403.48,357.07q29.59,10.07,59.67,18.65-9.76,39.15-17.34,78.78C548.51,1819,584.56,2012,699.25,2078.17c118.46,68.3,317.28-1.91,510.88-171.14q23-20.07,46-42.44,29.05,28,59.64,54.42c187.53,161.37,372.74,226.54,487.34,160.2C1921.51,2010.7,1960,1803.37,1910,1551.13q-5.71-28.91-13.23-59,20.94-6.2,41-12.82c253-83.8,417.53-219.29,417.53-357.87,0-132.88-154-261.39-392.31-343.43Z" transform="translate(-7.36 -7.66)" fill="#53c1de"/>
  <path d="M1908.18,1389.86q-18.09,6-37.06,11.6c-27.93-88.41-65.62-182.42-111.73-279.53,44-94.82,80.24-187.62,107.39-275.46q33.85,9.81,65.59,20.7c204.19,70.28,328.74,174.21,328.74,254.29,0,85.3-134.52,196-352.92,268.4Zm-90.62,179.58c22.08,111.53,25.23,212.38,10.61,291.21-13.15,70.84-39.57,118.07-72.25,137-69.54,40.25-218.25-12.07-378.61-150.07q-27.58-23.73-55.49-50.58c62.18-68,124.31-147.07,185-234.86,106.68-9.46,207.46-24.94,298.85-46.06q6.74,27.24,11.94,53.38ZM901.1,1990.68c-67.94,24-122.05,24.68-154.75,5.82-69.61-40.14-98.54-195.11-59.07-403q7-36.86,16.11-73.26c90.38,20,190.42,34.37,297.35,43,61,85.91,125,164.87,189.41,234q-20.55,19.86-42,38.71c-85.62,74.84-171.4,127.92-247,154.63ZM582.82,1389.34c-107.6-36.78-196.45-84.57-257.35-136.72-54.73-46.87-82.36-93.4-82.36-131.16,0-80.34,119.79-182.83,319.57-252.48q37.62-13.07,76-23.9c27.61,89.81,63.83,183.71,107.54,278.67-44.28,96.37-81,191.77-108.88,282.64Q609.84,1398.53,582.82,1389.34ZM689.51,663.1C648,451.16,675.58,291.3,744.88,251.18c73.83-42.73,237,18.2,409.1,171q16.49,14.66,33.1,30.57c-64.1,68.83-127.45,147.2-188,232.6C895.34,694.93,796,710.38,704.68,731.07q-8.45-33.8-15.17-68Zm951.79,235q-32.35-55.89-67.1-110.35c70.41,8.89,137.86,20.7,201.19,35.16-19,61-42.71,124.68-70.62,190q-30.58-58.05-63.47-114.82Zm-388.14-378c43.48,47.09,87,99.69,129.85,156.75q-130.32-6.17-260.79-.06c42.87-56.53,86.78-109,130.94-156.69ZM862.53,898.76q-32.46,56.32-62.28,114.11c-27.45-65.11-50.94-129.12-70.11-190.93,63-14.09,130.09-25.61,200-34.35Q895.05,842.39,862.53,898.76Zm69.66,563.29c-72.26-8.07-140.42-19-203.35-32.7,19.48-62.9,43.48-128.29,71.52-194.79q29.92,57.81,62.55,114.17Q896.2,1406.21,932.19,1462.05Zm323.58,267.46c-44.68-48.21-89.24-101.53-132.76-158.88q63.36,2.49,129.1,2.5,67.46,0,133.19-3C1342.34,1628.56,1299,1682,1255.77,1729.51Zm449.9-498.34c29.49,67.22,54.35,132.26,74.1,194.1-64,14.6-133,26.36-205.83,35.09q35-55.45,67.74-112.28,33.28-57.74,64-116.91ZM1560,1301q-50.13,87.09-105.85,170.79c-65.47,4.68-133.12,7.09-202.06,7.09-68.66,0-135.46-2.13-199.78-6.3q-57.13-83.46-107.84-171.06-50.43-87.08-94.13-177.79,43.56-90.67,93.85-177.88v0q50.24-87.17,107-170.33c65.62-5,132.9-7.55,200.92-7.55,68.31,0,135.68,2.61,201.29,7.61q56.13,83,106.31,169.75,50.43,87,95.12,177-44.21,91-94.81,178.61ZM1754.48,248.38c73.88,42.61,102.62,214.45,56.2,439.8q-4.58,22-9.93,43.87c-91.53-21.12-190.94-36.84-295-46.61-60.63-86.33-123.45-164.84-186.52-232.78q24.8-23.9,50.74-46.54c162.91-141.78,315.16-197.75,384.53-157.74Z" transform="translate(-7.36 -7.66)" fill="#fff"/>
  <path d="M1252.11,924.42c108.82,0,197,88.22,197,197s-88.21,197-197,197-197-88.22-197-197,88.22-197,197-197" transform="translate(-7.36 -7.66)" fill="#53c1de"/>
</svg>
